# xmcd
#
# Track frame offsets:
#	150
#	26657
#	96115
#	129139
#
# Disc length: 2478 seconds
#
# Revision: 1
# Processed by: cddbd v1.5.2PL0 Copyright (c) Steve Scherf et al.
# Submitted via: audiograbber 1.83.01
#
DISCID=2609ac04
DTITLE=Grateful Dead - 82-04-17 Hartford Civic Centre, Hartford CT
DYEAR=1900
DGENRE=
TTITLE0=Men Smart, Women Smarter
TTITLE1=Shakedown Street
TTITLE2=Lost Sailor
TTITLE3=Saint Of Circumstance
EXTD=
EXTT0=
EXTT1=
EXTT2=
EXTT3=
PLAYORDER=
